<?xml version="1.0" encoding="utf-8"?>
<!-- Generator: Adobe Illustrator 16.0.0, SVG Export Plug-In . SVG Version: 6.00 Build 0)  -->
<!DOCTYPE svg PUBLIC "-//W3C//DTD SVG 1.1//EN" "http://www.w3.org/Graphics/SVG/1.1/DTD/svg11.dtd">
<svg version="1.1" id="Layer_1" xmlns="http://www.w3.org/2000/svg" xmlns:xlink="http://www.w3.org/1999/xlink" x="0px" y="0px"
	 width="256px" height="256px" viewBox="0 0 256 256" enable-background="new 0 0 256 256" xml:space="preserve">
<g transform="translate(1.4065934065934016 1.4065934065934016) scale(2.81 2.81)">
	<path fill="#FFFFFF" d="M47,88V2c0-1.104-0.896-2-2-2c-1.104,0-2,0.896-2,2v86c0,1.104,0.896,2,2,2C46.104,90,47,89.105,47,88z"/>
	<path fill="#FFFFFF" d="M60.627,74.373c0-0.512-0.195-1.023-0.586-1.414c-0.781-0.781-2.047-0.781-2.828,0L45,85.172L32.787,72.959
		c-0.781-0.781-2.047-0.781-2.828,0c-0.781,0.781-0.781,2.047,0,2.828l13.626,13.627C43.961,89.789,44.469,90,45,90
		c0.531,0,1.039-0.211,1.414-0.586l13.627-13.627C60.431,75.397,60.627,74.885,60.627,74.373z"/>
</g>
</svg>
